<svg id="Layer_1" data-name="Layer 1" xmlns="http://www.w3.org/2000/svg" viewBox="0 0 23 18"><defs><style>.cls-1{fill:#fff;}</style></defs><title>basket_button</title><g id="Agala"><path class="cls-1" d="M17.86,12H10.51a1.58,1.58,0,0,1-1.38-.78l-5-8.86a.94.94,0,0,0-.82-.47H.77A.76.76,0,0,1,0,1.1V.74A.76.76,0,0,1,.77,0H4.65a1.17,1.17,0,0,1,1,.5L7.67,3.22H23l-4,8A1.3,1.3,0,0,1,17.86,12Z"/><ellipse class="cls-1" cx="9.46" cy="16" rx="2.09" ry="2"/><ellipse class="cls-1" cx="17.8" cy="16" rx="2.09" ry="2"/></g></svg>