<svg id="Layer_1" data-name="Layer 1" xmlns="http://www.w3.org/2000/svg" viewBox="0 0 17 13"><defs><style>.cls-1{fill:#77d0e3;}</style></defs><title>booked_today</title><path class="cls-1" d="M14.38,5.26,17,4,8.5,0,0,4,2.62,5.26,0,6.5,2.62,7.74,0,9l8.5,4L17,9,14.38,7.74,17,6.5ZM2.34,4,8.5,1.11,14.66,4l-1.44.68L12,5.26l-1.44.68L9.43,6.5l-.93.44L7.57,6.5,6.4,5.95,5,5.26,3.79,4.71ZM14.66,9,8.5,11.89,2.34,9l1.44-.68L8.5,10.52l4.71-2.23ZM13.21,7.18,12,7.74,8.5,9.42,5,7.74,3.79,7.18,2.34,6.5l1.44-.68,1.44.68,1.17.55L8.5,8l2.1-1,1.17-.55,1.44-.68,1.44.68Z"/></svg>