<svg id="Layer_1" data-name="Layer 1" xmlns="http://www.w3.org/2000/svg" viewBox="0 0 20 20"><defs><style>.cls-1{fill:#52768c;}</style></defs><title>call</title><path class="cls-1" d="M0,16a1.36,1.36,0,0,1,.66-.8l3.66-2.39A.94.94,0,0,1,5.62,13a8,8,0,0,1,.64.78c.17.22.31.45.48.66A1.58,1.58,0,0,0,8.52,15a7.19,7.19,0,0,0,1.83-.91,11.91,11.91,0,0,0,4.37-4.83,4.75,4.75,0,0,0,.3-.82A1.31,1.31,0,0,0,14.54,7c-.27-.21-.56-.4-.85-.6a7,7,0,0,1-.6-.44,1.15,1.15,0,0,1-.2-1.63L15,1c.08-.12.17-.25.25-.38A1.25,1.25,0,0,1,16.06,0h.51l.05,0A6.12,6.12,0,0,1,19.11,1.2a1.42,1.42,0,0,1,.65.87A16.88,16.88,0,0,1,20,4.14a13.17,13.17,0,0,1-1.81,6.72,18.75,18.75,0,0,1-6.41,6.78,14.53,14.53,0,0,1-5.66,2.22L5,20H3.75l-.17,0L2.37,19.8a1.42,1.42,0,0,1-1-.51,9.15,9.15,0,0,1-.67-.93A6,6,0,0,1,0,16.52Z"/></svg>