<svg id="Layer_1" data-name="Layer 1" xmlns="http://www.w3.org/2000/svg" viewBox="0 0 19 19"><defs><style>.cls-1{fill:#52768c;}</style></defs><title>giftbox</title><path class="cls-1" d="M17,6.76a1,1,0,0,1,1,1v2a1,1,0,0,1-1,1H2a1,1,0,0,1-1-1v-2a1,1,0,0,1,1-1H17m0-1H2a2,2,0,0,0-2,2v2a2,2,0,0,0,2,2H17a2,2,0,0,0,2-2v-2a2,2,0,0,0-2-2Z" transform="translate(0 0)"/><path class="cls-1" d="M16,11.86V17a1,1,0,0,1-1,1H4a1,1,0,0,1-1-1v-5.1H16m1-1H2V17a2,2,0,0,0,2,2H15a2,2,0,0,0,2-2V10.84Z" transform="translate(0 0)"/><path class="cls-1" d="M13.86,1h0a1.28,1.28,0,0,1,1,.39c.47.6-.11,2-1.4,3.37-.67.72-2.25.9-3.44.94.08-1.18.36-2.85,1.42-3.72a4,4,0,0,1,2.41-1m0-1a5,5,0,0,0-3,1.21C9.08,2.64,9,5.39,9,6.76c1.35,0,4,0,5.19-1.28C15.73,3.84,16.59,2,15.65.77A2.21,2.21,0,0,0,13.86,0Z" transform="translate(0 0)"/><path class="cls-1" d="M5.19,1A4,4,0,0,1,7.59,2c.82.68.73,1.91.53,3.46l0,.26a3.44,3.44,0,0,1-2.51-.95C4.27,3.4,3.69,2,4.17,1.41a1.28,1.28,0,0,1,1-.39m0-1a2.21,2.21,0,0,0-1.8.77C2.46,2,3.31,3.84,4.85,5.49,6,6.76,7.65,6.76,9,6.76c0-1.37,1-4.13-.78-5.55A5,5,0,0,0,5.19,0Z" transform="translate(0 0)"/></svg>