<svg id="Layer_1" data-name="Layer 1" xmlns="http://www.w3.org/2000/svg" viewBox="0 0 24 24"><defs><style>.cls-1{fill:#fff;}</style></defs><title>instagram</title><path class="cls-1" d="M7.06,0A7.08,7.08,0,0,0,0,7.06v9.89A7.08,7.08,0,0,0,7.06,24h9.89A7.08,7.08,0,0,0,24,16.94V7.06A7.08,7.08,0,0,0,16.94,0Zm0,2.18h9.89a4.87,4.87,0,0,1,4.88,4.88v9.89a4.87,4.87,0,0,1-4.88,4.88H7.06a4.87,4.87,0,0,1-4.88-4.88V7.06A4.87,4.87,0,0,1,7.06,2.18ZM18.44,4.57a1,1,0,1,0,1,1,1,1,0,0,0-1-1ZM12,5.45A6.55,6.55,0,1,0,18.55,12,6.56,6.56,0,0,0,12,5.45Zm0,2.18A4.36,4.36,0,1,1,7.64,12,4.34,4.34,0,0,1,12,7.64Zm0,0"/></svg>