<svg id="Layer_1" data-name="Layer 1" xmlns="http://www.w3.org/2000/svg" viewBox="0 0 27 27"><defs><style>.cls-1{fill:#9dacb8;}</style></defs><title>instagram</title><g id="social_pop" data-name="social pop"><path class="cls-1" d="M27,9.34a16.14,16.14,0,0,0-.27-3.27A6.94,6.94,0,0,0,21.42.4,14.31,14.31,0,0,0,17.82,0c-2.38,0-4.76,0-7.14,0A29,29,0,0,0,6.39.23a7.07,7.07,0,0,0-6,5.48A15.21,15.21,0,0,0,0,9.24q0,3.28,0,6.55V16H0q0,.84,0,1.68a16.14,16.14,0,0,0,.27,3.27,6.94,6.94,0,0,0,5.3,5.66,14.31,14.31,0,0,0,3.6.38c2.38,0,4.76,0,7.14,0a29,29,0,0,0,4.29-.23,7.36,7.36,0,0,0,3.76-1.67h0a6.88,6.88,0,0,0,2.1-3.17A12.46,12.46,0,0,0,27,18C27,15.13,27,12.23,27,9.34Zm-2.43,9.1a12.26,12.26,0,0,1-.22,2.12,4.49,4.49,0,0,1-2,3.06l0,0h0a5.31,5.31,0,0,1-1.51.65,8.68,8.68,0,0,1-1.7.25l-.89,0H18c-2.46,0-4.93.05-7.39,0a31.84,31.84,0,0,1-3.89-.21,4.5,4.5,0,0,1-4-3.67q-.06-.29-.11-.58c-.06-.6-.11-1.21-.15-1.82s0-1.13,0-1.7h0c0-2.29,0-4.59,0-6.88a16.74,16.74,0,0,1,.22-3.16A4.6,4.6,0,0,1,6.2,2.73,11.25,11.25,0,0,1,9,2.44c2.46,0,4.93-.05,7.39,0a31.84,31.84,0,0,1,3.89.21,4.5,4.5,0,0,1,4,3.67,11.12,11.12,0,0,1,.25,2.25Q24.59,13.49,24.56,18.44Z"/><path class="cls-1" d="M20.45,13.53a6.94,6.94,0,1,1-6.89-7A6.92,6.92,0,0,1,20.45,13.53ZM9,13.5A4.51,4.51,0,1,0,13.51,9,4.5,4.5,0,0,0,9,13.5Z"/><path class="cls-1" d="M19.12,6.28a1.61,1.61,0,1,1,1.62,1.61A1.6,1.6,0,0,1,19.12,6.28Z"/></g></svg>