<?xml version="1.0" encoding="utf-8"?>
<!-- Generator: Adobe Illustrator 21.1.0, SVG Export Plug-In . SVG Version: 6.00 Build 0)  -->
<svg version="1.1" id="Layer_1" xmlns="http://www.w3.org/2000/svg" xmlns:xlink="http://www.w3.org/1999/xlink" x="0px" y="0px"
	 viewBox="0 0 36 31" style="enable-background:new 0 0 36 31;" xml:space="preserve">
<style type="text/css">
	.st0{opacity:0.53;fill:#FFFFFF;}
</style>
<path class="st0" d="M18.1,31c-1-0.9-2-1.7-2.9-2.5c-2.3-1.9-4.6-3.8-6.9-5.7c-1.9-1.6-3.6-3.3-5.2-5.3C1.9,16,1,14.3,0.5,12.4
	C-0.3,9.9-0.2,7.4,1,5c1.3-2.6,3.4-4.2,6.3-4.8c2.3-0.5,4.3,0.2,6.1,1.6c1.4,1.1,2.4,2.4,3.4,3.8c0.4,0.6,0.8,1.2,1.2,1.8
	c0.1-0.1,0.2-0.3,0.3-0.5c1.2-2,2.6-3.7,4.4-5.2C24,0.8,25.4,0,27.1,0c2.2,0,4.2,0.7,5.9,2.2c1.5,1.4,2.5,3.1,2.9,5.1
	c0.3,1.8,0.2,3.5-0.3,5.2c-0.8,2.8-2.5,5-4.4,7.1c-1.8,2-3.8,3.8-5.9,5.5c-2.3,1.9-4.6,3.8-6.9,5.7C18.3,30.9,18.2,30.9,18.1,31z"/>
</svg>
