<svg id="Layer_1" data-name="Layer 1" xmlns="http://www.w3.org/2000/svg" viewBox="0 0 27 27"><defs><style>.cls-1{fill:#9dacb8;}</style></defs><title>link</title><path class="cls-1" d="M16.15,14.44l.47-.44c.57-.56,1.13-1.13,1.71-1.69a.84.84,0,0,1,.36-.19,3.5,3.5,0,0,0,1.64-.92c1.05-1.06,2.11-2.1,3.15-3.17a3.2,3.2,0,0,0-4.4-4.66c-.77.72-1.5,1.48-2.24,2.22-.41.4-.82.81-1.21,1.22a3.12,3.12,0,0,0-.78,1.57.36.36,0,0,1-.08.18l-2.2,2.21,0,0a5.32,5.32,0,0,1-.3-2,5.7,5.7,0,0,1,1.7-3.95l3.14-3.15a5.72,5.72,0,0,1,3-1.64,5.66,5.66,0,0,1,4.46.95,5.59,5.59,0,0,1,2.33,3.52,5.65,5.65,0,0,1-.57,4A6.23,6.23,0,0,1,25.2,10c-1,1-2,2-3,3a6,6,0,0,1-3.67,1.82A5.8,5.8,0,0,1,16.15,14.44Z" transform="translate(0 0)"/><path class="cls-1" d="M10.85,12.56a1.86,1.86,0,0,0-.21.16c-.66.65-1.31,1.3-2,1.95a.8.8,0,0,1-.35.18,3.35,3.35,0,0,0-1.56.82c-1.1,1.1-2.22,2.19-3.3,3.31a3.2,3.2,0,0,0,4.4,4.63c1.19-1.12,2.34-2.28,3.47-3.45a4.49,4.49,0,0,0,.62-1,1.45,1.45,0,0,0,.16-.51.69.69,0,0,1,.23-.41l1.94-1.95c.05-.05.1-.11.16-.2a5.36,5.36,0,0,1,.32,2,5.73,5.73,0,0,1-1.73,4C12,23.17,11,24.23,9.9,25.25a5.59,5.59,0,0,1-6.24,1.31A5.48,5.48,0,0,1,.09,22.12a5.53,5.53,0,0,1,.83-4,6.5,6.5,0,0,1,.83-1q1.56-1.59,3.15-3.14A5.73,5.73,0,0,1,10,12.31c.26,0,.51.13.77.19Z" transform="translate(0 0)"/><path class="cls-1" d="M18.66,9.65a1.43,1.43,0,0,1-.48,1l-4,4-3.57,3.56a1.29,1.29,0,0,1-1.53.33,1.28,1.28,0,0,1-.46-2,2.44,2.44,0,0,1,.19-.21l7.55-7.55a1.32,1.32,0,0,1,1.33-.43A1.29,1.29,0,0,1,18.66,9.65Z" transform="translate(0 0)"/></svg>