<svg id="Layer_1" data-name="Layer 1" xmlns="http://www.w3.org/2000/svg" viewBox="0 0 29 50"><defs><style>.cls-1{fill:#fff;}</style></defs><title>lookbook_tag_price</title><path class="cls-1" d="M15.77,7.24h-.06v-6a1.25,1.25,0,0,0-1-1.25,1.21,1.21,0,0,0-1.45,1.2v6A14.62,14.62,0,0,0,0,21.85V47.69A2.29,2.29,0,0,0,2.28,50H26.72A2.29,2.29,0,0,0,29,47.69V21.85A14.62,14.62,0,0,0,15.77,7.24m-2.51,4.86v2.68a2.52,2.52,0,0,0-1.15,2.82,2.47,2.47,0,0,0,4.78,0,2.52,2.52,0,0,0-1.15-2.82V12.09a5,5,0,1,1-2.48,0M9,35.59v6a2.15,2.15,0,0,1-.27,1.28,1.21,1.21,0,0,1-1,.33q-.81,0-1-.43a3.14,3.14,0,0,1-.14-1.18V35.45A4.27,4.27,0,0,1,7.89,32a6.56,6.56,0,0,1,4.17-1.08q5.49,0,5.49,4.57v2.36a2.24,2.24,0,0,1-.26,1.3,1.21,1.21,0,0,1-1,.32,1.06,1.06,0,0,1-.9-.32,2.33,2.33,0,0,1-.25-1.3V35.66q0-2.58-3.12-2.58a3.82,3.82,0,0,0-2.35.57A2.37,2.37,0,0,0,9,35.59m12.95,2.25a5.22,5.22,0,0,1-1.54,4A6.08,6.08,0,0,1,16.1,43.3a5.5,5.5,0,0,1-3.71-1.13A4.46,4.46,0,0,1,11,38.56V36.37a2.32,2.32,0,0,1,.25-1.29,1.19,1.19,0,0,1,1-.33,1.06,1.06,0,0,1,.9.33,2.32,2.32,0,0,1,.25,1.29v2.15q0,2.58,2.95,2.58a3.3,3.3,0,0,0,2.41-.81,3,3,0,0,0,.83-2.23V32.6a2.13,2.13,0,0,1,.27-1.27,1.18,1.18,0,0,1,1-.34q.82,0,1,.43a3.09,3.09,0,0,1,.15,1.18Z" transform="translate(0 0)"/></svg>