<svg id="Layer_1" data-name="Layer 1" xmlns="http://www.w3.org/2000/svg" viewBox="0 0 16 13.54"><title>lookbook_heart</title><path d="M8.05,13.8l-1.3-1.1c-1-.84-2.05-1.65-3.06-2.51A17.11,17.11,0,0,1,1.4,7.89,6.34,6.34,0,0,1,.2,5.66,4.2,4.2,0,0,1,.46,2.44,4,4,0,0,1,3.26.32,3.18,3.18,0,0,1,6,1,8.19,8.19,0,0,1,7.5,2.71c.19.25.35.52.53.79l.13-.2a9,9,0,0,1,2-2.27A3.07,3.07,0,0,1,12,.26a3.7,3.7,0,0,1,2.63,1,3.9,3.9,0,0,1,1.27,2.23,4.91,4.91,0,0,1-.15,2.29,7.86,7.86,0,0,1-1.94,3.12,25,25,0,0,1-2.62,2.39c-1,.83-2.05,1.65-3.08,2.48Z" transform="translate(0 -0.25)"/></svg>