<svg id="Layer_1" data-name="Layer 1" xmlns="http://www.w3.org/2000/svg" viewBox="0 0 59 24"><defs><style>.cls-1{fill:#77d0e3;}</style></defs><title>Mivza_Sale</title><path class="cls-1" d="M58,1V23H1V1H58m1-1H0V24H59V0Z"/><path class="cls-1" d="M11.77,15.12a.83.83,0,0,1,.66.26,1.05,1.05,0,0,1,.23.73,1.07,1.07,0,0,1-.23.74.83.83,0,0,1-.64.26.87.87,0,0,1-.65-.24,1,1,0,0,1-.24-.75Q10.89,15.12,11.77,15.12Zm.4-1.18H11.4L11,6.19h1.52Z"/><path class="cls-1" d="M16.2,7.45l1.13,4.26q.21.94.88,3.93,2.15-.79,2.45-4.06L21,7.46h1.22l-.36,4.12a7.89,7.89,0,0,1-.28,1.61,6.1,6.1,0,0,1-.42,1.09,5,5,0,0,1-.59.87,4.26,4.26,0,0,1-.85.78,5.48,5.48,0,0,1-1.18.59A7.15,7.15,0,0,1,17,16.9l-2.71.38v-1l2.86-.45L14.94,7.45Z"/><path class="cls-1" d="M30.48,16.9h-7V16h4l1.67.08v0l-2.44-3.3L23.46,7.45h1.38L27.67,12l.23.33a2.08,2.08,0,0,0,.85-1.13,8.69,8.69,0,0,0,.41-2.08l.16-1.69h1.22L30.4,8.94s0,.17,0,.37,0,.35,0,.46l-.07.49a3.76,3.76,0,0,1-.11.54l-.16.53a2.52,2.52,0,0,1-.23.54q-.14.23-.31.48a2.6,2.6,0,0,1-1,.78l2,2.81Z"/><path class="cls-1" d="M32,7.41q1.17-.11,2.75-.11A3.38,3.38,0,0,1,37,8a3,3,0,0,1,.75,2.32V16h1.08v.95H32V16h4.61V10.29a1.91,1.91,0,0,0-.51-1.54,2.47,2.47,0,0,0-1.57-.41q-1.14,0-2.16.08l-.37,0Z"/><path class="cls-1" d="M44.33,7.3a2.54,2.54,0,0,1,2.08.83,3.5,3.5,0,0,1,.69,2.3V16.9H43.87V16h2V10.49q0-2.16-2-2.16a2,2,0,0,0-.68.12,2.16,2.16,0,0,0-.56.29,3.55,3.55,0,0,0-.68.64l-.09.12-.7,7.4H40l.69-7.27V9.47a5.3,5.3,0,0,0-.1-.67,4.16,4.16,0,0,0-.26-.89l-.19-.45h1.22a3.33,3.33,0,0,1,.34,1h.05a3.16,3.16,0,0,1,.92-.75,3.77,3.77,0,0,1,.73-.27A3.63,3.63,0,0,1,44.33,7.3Z"/></svg>