<svg id="Layer_1" data-name="Layer 1" xmlns="http://www.w3.org/2000/svg" viewBox="0 0 22 28"><defs><style>.cls-1{fill:#1c1c1c;}</style></defs><title>pinterest</title><path class="cls-1" d="M12.84,20.31c-1.72-.13-2.44-1-3.79-1.79C8.3,22.37,7.39,26.07,4.71,28c-.83-5.83,1.22-10.2,2.17-14.85-1.62-2.7.2-8.14,3.61-6.8,4.21,1.65-3.64,10,1.63,11.09,5.5,1.09,7.75-9.45,4.33-12.88-4.93-5-14.35-.11-13.19,7,.28,1.73,2.09,2.26.72,4.65C.83,15.5-.11,13,0,9.75.21,4.38,4.89.62,9.59.09,15.53-.56,21.1,2.25,21.87,7.79c.87,6.24-2.68,13-9,12.52Zm0,0" transform="translate(0)"/></svg>