<svg id="Layer_1" data-name="Layer 1" xmlns="http://www.w3.org/2000/svg" viewBox="0 0 27 27"><defs><style>.cls-1{fill:#9dacb8;}</style></defs><title>pinterest_circle</title><path class="cls-1" d="M9.67,26.42c1.41-2,1.66-4.29,2.31-6.52a3.8,3.8,0,0,0,3,1.61A6.15,6.15,0,0,0,19.53,20a8.72,8.72,0,0,0,2.76-5,9.53,9.53,0,0,0,.09-4.18,7.43,7.43,0,0,0-5.09-5.6A10,10,0,0,0,7.19,7a7.93,7.93,0,0,0-2.43,8.5A4.22,4.22,0,0,0,7,18.08c.48.22.71.1.84-.41a9.23,9.23,0,0,0,.24-1A.8.8,0,0,0,8,16.1a4.68,4.68,0,0,1-.77-4.45A6.3,6.3,0,0,1,13,6.88a7.65,7.65,0,0,1,2.82.27,4.73,4.73,0,0,1,3.45,4.46,10.36,10.36,0,0,1-.89,4.91,5,5,0,0,1-1.61,2.09,2.82,2.82,0,0,1-2.14.55,2,2,0,0,1-1.73-2.6c.29-1.13.65-2.25,1-3.38A4.13,4.13,0,0,0,14,11.36,1.79,1.79,0,0,0,11.36,10a3,3,0,0,0-1.62,2.22,5.3,5.3,0,0,0,.2,3,1,1,0,0,1,0,.52c-.57,2.46-1.18,4.91-1.71,7.38a17.71,17.71,0,0,0-.2,2.41c0,.11,0,.22,0,.33A13.46,13.46,0,0,1,17,.49,13.48,13.48,0,1,1,9.67,26.42Z" transform="translate(0)"/></svg>