<svg id="Layer_1" data-name="Layer 1" xmlns="http://www.w3.org/2000/svg" viewBox="0 0 30 27"><defs><style>.cls-1{fill:#9dacb8;}</style></defs><title>printer</title><polygon class="cls-1" points="24 7 22 7 22 2 8 2 8 7 6 7 6 0 24 0 24 7"/><path class="cls-1" d="M26.92,23H23.74V21h3.18A1.09,1.09,0,0,0,28,19.92V9A1.09,1.09,0,0,0,26.92,8H3.08A1.09,1.09,0,0,0,2,9V19.92A1.09,1.09,0,0,0,3.08,21H6.64v2H3.08A3.09,3.09,0,0,1,0,19.92V9A3.09,3.09,0,0,1,3.08,6H26.92A3.09,3.09,0,0,1,30,9V19.92A3.09,3.09,0,0,1,26.92,23Z"/><circle class="cls-1" cx="23.75" cy="10.25" r="1.25"/><path class="cls-1" d="M25,27H5V12H25ZM7,25H23V14H7Z"/><rect class="cls-1" x="10" y="17.5" width="10" height="2"/><rect class="cls-1" x="10" y="20.5" width="10" height="2"/></svg>