<svg id="Layer_1" data-name="Layer 1" xmlns="http://www.w3.org/2000/svg" viewBox="0 0 22 22"><defs><style>.cls-1{fill:#49687f;}</style></defs><title>resize</title><polygon class="cls-1" points="15 0 15 1 21 1 21 21 1 21 1 15 0 15 0 22 22 22 22 0 15 0"/><polygon class="cls-1" points="17 14 17 13 13 13 13 17 14 17 14 14 17 14"/><path class="cls-1" d="M13,0H11V1h2V0ZM9,0H7V1H9V0ZM5,0H3V1H5V0ZM1,0H0V1H1V0ZM1,3H0V5H1V3ZM1,7H0V9H1V7Zm0,4H0v2H1V11Zm3,1H2v1H4V12Zm4,0H6v1H8V12Zm4,0H10v1h2V12Zm1-2H12v2h1V10Zm0-4H12V8h1V6Zm0-4H12V4h1V2Z"/><rect class="cls-1" x="14" y="14" width="1" height="1"/><rect class="cls-1" x="15" y="15" width="1" height="1"/><rect class="cls-1" x="16" y="16" width="1" height="1"/><rect class="cls-1" x="17" y="17" width="1" height="1"/><rect class="cls-1" x="18" y="18" width="1" height="1"/></svg>