<svg id="Layer_1" data-name="Layer 1" xmlns="http://www.w3.org/2000/svg" viewBox="0 0 113 48"><defs><style>.cls-1{fill:#fff;}</style></defs><title>tileisrael_logo_white_footer</title><path class="cls-1" d="M0,13.78H2.05V1.92H6.52V13.78h3.73v3.67H6.52V41.52c0,1.54.68,3.38,3.73,3.16V48A9.18,9.18,0,0,1,4.81,47c-2.15-1.22-2.76-3.41-2.76-7.18V17.44H0Z"/><path class="cls-1" d="M17.17,8.19H12.7V1.92h4.47Zm0,39.77H12.7V13.78h4.47Z"/><path class="cls-1" d="M20.8,1.92h4.47V48H20.8Z"/><path class="cls-1" d="M33.43,41.25q0,2.46,2.2,2.46T38,41.25V34.41h4.47v5.1q0,8.45-6.8,8.45T29,39.51V20.8q0-8.45,6.67-8.45t6.8,8.45V30.94h-9Zm0-14H38V19.07a2.09,2.09,0,0,0-2.33-2.4q-2.2,0-2.2,2.4Z"/><polygon class="cls-1" points="45.94 1.92 45.94 2.16 45.94 47.96 50.41 47.96 50.41 2.16 50.41 1.92 45.94 1.92"/><path class="cls-1" d="M60.58,18.89q0-2.46-1.81-2.46T57,18.89v3.3q0,2.76,4.15,7.49T65.31,39Q65.31,48,58.9,48t-6.35-9.11V37.29H57v4.14q0,2.46,1.94,2.46t1.94-2.46v-3.3q0-3.06-4.15-7.07a13.08,13.08,0,0,1-4.15-9.65q0-9.05,6.22-9.05t6.29,9.05v3.06H60.58Z"/><path class="cls-1" d="M71.79,15.4c.65-2.37,2.92-2.94,5.46-2.79v4.84a4,4,0,0,0-3.2-.3,3.38,3.38,0,0,0-2.27,3.41V48H67.32V12.66h4.47Z"/><path class="cls-1" d="M77,36.81a7.27,7.27,0,0,1,3.43-6.41l3.11-2L86,26.8V19.07q0-2.4-2.07-2.4T82,19.07v6.65H77.49V20.8q0-8.45,6.41-8.45t6.54,8.45V48H86V46.4A4.13,4.13,0,0,1,82.35,48Q77,48,77,39.51Zm8.94-6a22.82,22.82,0,0,0-3.11,2.34,6.14,6.14,0,0,0-1.36,4.19v4q0,2.46,2.07,2.46A2.15,2.15,0,0,0,86,41.25Z"/><path class="cls-1" d="M97.51,41.25q0,2.46,2.2,2.46t2.33-2.46V34.41h4.47v5.1q0,8.45-6.8,8.45T93,39.51V20.8q0-8.45,6.67-8.45t6.8,8.45V30.94h-9Zm0-14h4.54V19.07a2.09,2.09,0,0,0-2.33-2.4q-2.2,0-2.2,2.4Z"/><path class="cls-1" d="M108.53,0H113V48h-4.47Z"/></svg>