<svg id="Layer_1" data-name="Layer 1" xmlns="http://www.w3.org/2000/svg" viewBox="0 0 32 32"><defs><style>.cls-1{fill:#ccc;}.cls-2{fill:#fff;}</style></defs><title>user_chat</title><circle class="cls-1" cx="16" cy="16" r="16"/><path class="cls-2" d="M16,17.71a5.66,5.66,0,1,1,5.66-5.66A5.67,5.67,0,0,1,16,17.71Zm0-9.81a4.15,4.15,0,1,0,4.15,4.15A4.15,4.15,0,0,0,16,7.91Z"/><path class="cls-2" d="M23.76,23a.76.76,0,0,1-.76-.76,7,7,0,0,0-3.6-6.12.76.76,0,0,1,.74-1.32,8.53,8.53,0,0,1,4.37,7.44A.76.76,0,0,1,23.76,23Z"/><path class="cls-2" d="M8.24,23a.76.76,0,0,1-.76-.76,8.5,8.5,0,0,1,4.58-7.56.76.76,0,0,1,.7,1.34A7,7,0,0,0,9,22.27.76.76,0,0,1,8.24,23Z"/></svg>