<svg id="Layer_1" data-name="Layer 1" xmlns="http://www.w3.org/2000/svg" viewBox="0 0 228.5 164"><defs><style>.cls-1{fill:#fff;}.cls-2{fill:#dd1f26;}</style></defs><title>welovetile</title><g id="WE"><polygon class="cls-1" points="68.09 71.4 48.41 0.37 48.31 0 44.49 0 25.02 71.4 3.98 0 0.83 0 23.29 75.98 26.89 75.98 46.35 4.62 66.23 75.98 69.83 75.98 91.97 0 88.81 0 68.09 71.4"/><polygon class="cls-1" points="140.88 72.88 98.88 72.88 98.88 37.97 133.64 37.97 133.64 34.87 98.88 34.87 98.88 3.1 140.46 3.1 140.46 0 95.79 0 95.79 75.98 140.88 75.98 140.88 72.88"/><polygon class="cls-1" points="0 91.12 36.8 91.12 36.8 164 39.89 164 39.89 91.12 74.8 91.12 74.8 88.02 0 88.02 0 91.12"/><rect class="cls-1" x="84.29" y="88.02" width="3.09" height="75.98"/><polygon class="cls-1" points="107.4 88.02 104.31 88.02 104.31 164 159.08 164 159.08 160.9 107.4 160.9 107.4 88.02"/><polygon class="cls-1" points="170.4 160.9 170.4 125.98 215.13 125.98 215.13 122.88 170.4 122.88 170.4 91.12 221.95 91.12 221.95 88.02 167.3 88.02 167.3 164 222.37 164 222.37 160.9 170.4 160.9"/><path class="cls-2" d="M184.45,75.24c-2.44-2.07-4.81-4.11-7.22-6.1-5.65-4.65-11.39-9.19-17-13.93a95,95,0,0,1-12.7-12.76A35.25,35.25,0,0,1,140.94,30c-1.73-6.11-1.59-12.19,1.44-17.89A22.09,22.09,0,0,1,157.87.39c5.69-1.22,10.59.51,15,4a45.48,45.48,0,0,1,8.49,9.31c1,1.4,1.94,2.89,3,4.4.23-.35.48-.72.71-1.1A49.89,49.89,0,0,1,195.92,4.36,17,17,0,0,1,206.48,0,20.45,20.45,0,0,1,221,5.37a21.7,21.7,0,0,1,7.06,12.4,27.33,27.33,0,0,1-.83,12.72c-2,6.8-6.07,12.22-10.74,17.31A138.81,138.81,0,0,1,202,61.11c-5.66,4.64-11.39,9.18-17.09,13.77Z"/></g></svg>