<svg id="Layer_1" data-name="Layer 1" xmlns="http://www.w3.org/2000/svg" viewBox="0 0 31 31"><defs><style>.cls-1{fill:#fff;}</style></defs><title>whatsapp</title><g id="RJMS5a"><path class="cls-1" d="M14.86,0h1.88A1.55,1.55,0,0,0,17,0a15.19,15.19,0,0,1,4.58,1.07A15,15,0,0,1,28,6a14.64,14.64,0,0,1,2.91,7.08c0,.35.1.7.14,1V16a1.56,1.56,0,0,0,0,.21,15,15,0,0,1-4.4,9.51,14.86,14.86,0,0,1-3.24,2.46,15.35,15.35,0,0,1-14.7.19.5.5,0,0,0-.35,0l-2.69.85-4,1.28L.1,31,0,30.9c.05-.12.12-.23.16-.35l1-3c.51-1.49,1-3,1.51-4.47a.58.58,0,0,0,0-.39c-.18-.39-.4-.76-.59-1.14a14.87,14.87,0,0,1-1-10.1A14.72,14.72,0,0,1,3.6,6.06,15.24,15.24,0,0,1,13.73.15Zm-11,27.25.56-.16,4.12-1.32a.53.53,0,0,1,.46.06c.61.33,1.21.68,1.84,1a12.21,12.21,0,0,0,5.08,1,12.51,12.51,0,0,0,5.2-1.15,12.78,12.78,0,0,0,6.15-5.92A12.54,12.54,0,0,0,26.07,7.58,12.72,12.72,0,0,0,23,4.65a12.47,12.47,0,0,0-5.19-2.08A12.84,12.84,0,0,0,5.05,8.2,12.4,12.4,0,0,0,3.3,12.29,12.8,12.8,0,0,0,3,15.88a12.45,12.45,0,0,0,2.29,6.49.38.38,0,0,1,0,.39q-.62,1.81-1.24,3.63Z"/><path class="cls-1" d="M11.06,8.23h.43a.57.57,0,0,1,.55.32c.19.41.38.82.56,1.24.25.58.47,1.18.74,1.75a1,1,0,0,1-.13,1c-.25.35-.53.67-.81,1a.58.58,0,0,0-.07.76,10.16,10.16,0,0,0,3.84,3.76c.43.23.87.43,1.32.62a.54.54,0,0,0,.74-.2l1.11-1.36a.58.58,0,0,1,.82-.22c1,.46,2,1,3,1.42a.51.51,0,0,1,.33.57,10.25,10.25,0,0,1-.26,1.38,2.12,2.12,0,0,1-.94,1.08,3.83,3.83,0,0,1-3.32.68c-.81-.23-1.6-.51-2.39-.78a11.94,11.94,0,0,1-4.64-3.14,18.63,18.63,0,0,1-2.82-3.77,5,5,0,0,1-.65-3.64A4,4,0,0,1,9.9,8.48,1.43,1.43,0,0,1,11.06,8.23Z"/></g></svg>